<?xml version="1.0" standalone="no"?>
<!DOCTYPE svg PUBLIC "-//W3C//DTD SVG 20010904//EN"
 "http://www.w3.org/TR/2001/REC-SVG-20010904/DTD/svg10.dtd">
<svg version="1.0" xmlns="http://www.w3.org/2000/svg"
 width="220.000000pt" height="52.000000pt" viewBox="0 0 220.000000 52.000000"
 preserveAspectRatio="xMidYMid meet">
<metadata>
Created by potrace 1.16, written by Peter Selinger 2001-2019
</metadata>
<g transform="translate(0.000000,52.000000) scale(0.100000,-0.100000)"
fill="#000000" stroke="none">
<path d="M513 363 c-30 -6 -73 -58 -73 -89 0 -63 58 -113 118 -99 30 6 72 39
72 55 0 16 -36 12 -50 -5 -17 -21 -63 -19 -83 3 -23 25 -21 58 3 82 24 24 49
25 76 5 21 -16 54 -20 54 -7 0 15 -44 49 -70 54 -14 3 -35 3 -47 1z"/>
<path d="M715 362 c-27 -6 -55 -32 -55 -52 0 -23 28 -47 70 -57 38 -10 51 -36
24 -47 -9 -4 -27 0 -40 9 -25 16 -54 20 -54 8 1 -30 53 -57 93 -49 42 8 57 24
57 58 0 24 -6 31 -37 44 -52 20 -65 28 -67 39 -2 14 44 19 57 6 13 -13 47 -15
47 -3 0 25 -57 52 -95 44z"/>
<path d="M840 270 l0 -90 70 0 c56 0 70 3 70 15 0 11 -12 15 -50 15 -43 0 -50
3 -50 20 0 17 7 20 45 20 38 0 45 3 45 20 0 17 -7 20 -46 20 -38 0 -45 3 -42
18 2 13 15 18 51 20 33 2 47 7 47 18 0 11 -16 14 -70 14 l-70 0 0 -90z"/>
<path d="M60 218 c0 -43 1 -43 68 -80 l68 -37 67 37 c45 24 63 40 57 46 -7 7
-29 0 -68 -21 l-57 -32 -53 30 c-28 17 -52 35 -52 40 0 14 10 11 58 -18 l46
-26 43 23 c30 16 41 26 34 33 -7 7 -21 5 -44 -8 l-34 -18 -62 37 c-34 20 -64
36 -67 36 -2 0 -4 -19 -4 -42z"/>
</g>
</svg>
